<svg width="150" height="150" viewBox="0 0 150 150" fill="none" xmlns="http://www.w3.org/2000/svg">
<rect x="2.5" y="2.5" width="145" height="145" fill="black" stroke="#DDD8D8" stroke-width="5"/>
<path d="M95.9915 141.431C91.4981 141.431 87.451 140.631 83.8501 139.031C80.2801 137.399 77.4486 134.999 75.3558 131.829C73.2938 128.659 72.2628 124.75 72.2628 120.103C72.2628 116.102 73.0014 112.794 74.4787 110.178C75.956 107.562 77.9718 105.469 80.5263 103.899C83.0807 102.33 85.9583 101.145 89.1591 100.344C92.3906 99.5135 95.7299 98.9134 99.1768 98.544C103.332 98.1132 106.702 97.7285 109.287 97.3899C111.872 97.0206 113.75 96.4666 114.919 95.728C116.119 94.9586 116.719 93.7737 116.719 92.1733V91.8963C116.719 88.4186 115.688 85.7256 113.626 83.8175C111.564 81.9093 108.594 80.9553 104.717 80.9553C100.623 80.9553 97.3764 81.8478 94.9759 83.6328C92.6061 85.4178 91.0057 87.526 90.1747 89.9574L74.571 87.7415C75.8021 83.4328 77.8333 79.8319 80.6648 76.9389C83.4962 74.0151 86.9586 71.83 91.0518 70.3835C95.1451 68.9062 99.6693 68.1676 104.624 68.1676C108.04 68.1676 111.441 68.5677 114.827 69.3679C118.212 70.1681 121.305 71.4915 124.106 73.3381C126.906 75.1539 129.153 77.6314 130.846 80.7706C132.569 83.9098 133.431 87.8338 133.431 92.5426V140H117.366V130.259H116.812C115.796 132.229 114.365 134.076 112.518 135.799C110.703 137.492 108.41 138.861 105.64 139.908C102.901 140.923 99.6847 141.431 95.9915 141.431ZM100.331 129.151C103.686 129.151 106.594 128.49 109.056 127.166C111.518 125.812 113.411 124.027 114.734 121.811C116.089 119.595 116.766 117.179 116.766 114.563V106.207C116.242 106.638 115.35 107.038 114.088 107.408C112.857 107.777 111.472 108.1 109.933 108.377C108.394 108.654 106.871 108.9 105.363 109.116C103.855 109.331 102.547 109.516 101.439 109.67C98.946 110.008 96.7147 110.562 94.745 111.332C92.7753 112.101 91.2211 113.178 90.0824 114.563C88.9437 115.917 88.3743 117.672 88.3743 119.826C88.3743 122.904 89.4976 125.227 91.7443 126.797C93.991 128.366 96.8532 129.151 100.331 129.151Z" fill="#FFFBFB"/>
<path d="M11.7727 63V10.6364H29.6364V20.5909H30.1818C31.2727 17.3182 33.1364 14.7273 35.7727 12.8182C38.4091 10.9091 41.5455 9.95455 45.1818 9.95455C48.8636 9.95455 52.0341 10.9318 54.6932 12.8864C57.3523 14.8182 58.9545 17.3864 59.5 20.5909H60.0455C60.9318 17.3864 62.8182 14.8182 65.7045 12.8864C68.5909 10.9318 71.9773 9.95455 75.8636 9.95455C80.8864 9.95455 84.9545 11.5682 88.0682 14.7955C91.2045 18.0227 92.7727 22.3182 92.7727 27.6818V63H73.9545V32.4545C73.9545 30.1591 73.375 28.3636 72.2159 27.0682C71.0568 25.75 69.5 25.0909 67.5455 25.0909C65.6136 25.0909 64.0795 25.75 62.9432 27.0682C61.8295 28.3636 61.2727 30.1591 61.2727 32.4545V63H43.2727V32.4545C43.2727 30.1591 42.6932 28.3636 41.5341 27.0682C40.375 25.75 38.8182 25.0909 36.8636 25.0909C35.5682 25.0909 34.4545 25.3864 33.5227 25.9773C32.5909 26.5682 31.8636 27.4205 31.3409 28.5341C30.8409 29.625 30.5909 30.9318 30.5909 32.4545V63H11.7727Z" fill="white"/>
<rect x="12" y="92" width="40" height="40" fill="#FFFEFE"/>
</svg>
