<svg viewBox="0 0 225 92" fill="none" xmlns="http://www.w3.org/2000/svg">
<mask id="path-1-outside-1_113_2" maskUnits="userSpaceOnUse" x="-5" y="-5" width="236" height="102" fill="black">
<rect fill="white" x="-5" y="-5" width="236" height="102"/>
<path d="M26.375 78.125C26.375 79.9583 26.0208 81.6667 25.3125 83.25C24.6042 84.8333 23.6458 86.2292 22.4375 87.4375C21.2708 88.6042 19.8958 89.5417 18.3125 90.25C16.7292 90.9167 15.0417 91.25 13.25 91.25C11.4167 91.25 9.70833 90.9167 8.125 90.25C6.54167 89.5417 5.14583 88.6042 3.9375 87.4375C2.77083 86.2292 1.83333 84.8333 1.125 83.25C0.458333 81.6667 0.125 79.9583 0.125 78.125C0.125 76.3333 0.458333 74.625 1.125 73C1.83333 71.375 2.77083 69.9792 3.9375 68.8125C5.14583 67.6042 6.54167 66.6458 8.125 65.9375C9.70833 65.2292 11.4167 64.875 13.25 64.875C15.0417 64.875 16.7292 65.2292 18.3125 65.9375C19.8958 66.6458 21.2708 67.6042 22.4375 68.8125C23.6458 69.9792 24.6042 71.375 25.3125 73C26.0208 74.625 26.375 76.3333 26.375 78.125ZM139.812 48.625C139.812 54.5833 139.625 60.5208 139.25 66.4375C138.875 72.3542 138.438 78.2917 137.938 84.25L105.812 85.75C106.771 78.5 107.625 71.25 108.375 64C109.167 56.7083 109.562 49.4167 109.562 42.125C109.562 41.6667 109.542 40.875 109.5 39.75C109.458 38.5833 109.375 37.2708 109.25 35.8125C109.167 34.3542 109.021 32.8542 108.812 31.3125C108.646 29.7292 108.396 28.2917 108.062 27C107.771 25.6667 107.396 24.5833 106.938 23.75C106.479 22.9167 105.938 22.5 105.312 22.5C103.854 22.5 102.708 23.0625 101.875 24.1875C101.042 25.2708 100.417 26.5833 100 28.125C99.625 29.6667 99.3958 31.25 99.3125 32.875C99.2292 34.4583 99.1875 35.75 99.1875 36.75C99.1875 38.5 99.2292 40.25 99.3125 42C99.3958 43.75 99.4375 45.5417 99.4375 47.375C99.4375 53.8333 99.2708 60.2708 98.9375 66.6875C98.6458 73.1042 98.2708 79.5417 97.8125 86L68.1875 87.125C69.1458 79.875 69.9792 72.6458 70.6875 65.4375C71.4375 58.1875 71.8125 50.9167 71.8125 43.625C71.8125 43.1667 71.7917 42.3333 71.75 41.125C71.7083 39.9167 71.625 38.5625 71.5 37.0625C71.4167 35.5625 71.2708 34 71.0625 32.375C70.8542 30.75 70.5833 29.2708 70.25 27.9375C69.9583 26.5625 69.5833 25.4375 69.125 24.5625C68.6667 23.6875 68.1042 23.25 67.4375 23.25C66.3958 23.25 65.5208 23.6667 64.8125 24.5C64.1042 25.2917 63.5208 26.3333 63.0625 27.625C62.6458 28.9167 62.3125 30.3542 62.0625 31.9375C61.8542 33.4792 61.6875 35 61.5625 36.5C61.4792 38 61.4167 39.3958 61.375 40.6875C61.375 41.9375 61.3542 42.875 61.3125 43.5L59.9375 89.125H28.4375C29.1042 82.0833 29.7708 75.0208 30.4375 67.9375C31.1458 60.8542 31.75 53.7917 32.25 46.75C32.7917 39.6667 33.2292 32.5833 33.5625 25.5C33.8958 18.4167 34.0625 11.3333 34.0625 4.25L63.8125 3L63.6875 10.25C64.6042 9.08333 65.6458 7.91667 66.8125 6.75C67.9792 5.54167 69.2083 4.47917 70.5 3.5625C71.8333 2.60417 73.2292 1.83333 74.6875 1.25C76.1875 0.666667 77.7292 0.375 79.3125 0.375C81.3542 0.375 83.1875 0.541667 84.8125 0.875C86.4375 1.16667 87.8958 1.6875 89.1875 2.4375C90.5208 3.1875 91.6875 4.22917 92.6875 5.5625C93.6875 6.85417 94.5625 8.5 95.3125 10.5C96.6458 9.04167 97.9792 7.6875 99.3125 6.4375C100.688 5.1875 102.125 4.125 103.625 3.25C105.125 2.33333 106.75 1.625 108.5 1.125C110.25 0.625 112.188 0.375 114.312 0.375C118.354 0.375 121.792 1.16667 124.625 2.75C127.458 4.29167 129.812 6.35417 131.688 8.9375C133.604 11.5208 135.083 14.4792 136.125 17.8125C137.208 21.1458 138.021 24.6042 138.562 28.1875C139.104 31.7708 139.438 35.3333 139.562 38.875C139.729 42.4167 139.812 45.6667 139.812 48.625ZM224.375 85.625L193.375 89.625L189.625 75.5H175.375L172.25 89.625L140.375 86.5L165.25 3.25L200 1.5L224.375 85.625ZM187.375 56.375L182.625 34.625L178 56.375H187.375Z"/>
</mask>
<path d="M26.375 78.125C26.375 79.9583 26.0208 81.6667 25.3125 83.25C24.6042 84.8333 23.6458 86.2292 22.4375 87.4375C21.2708 88.6042 19.8958 89.5417 18.3125 90.25C16.7292 90.9167 15.0417 91.25 13.25 91.25C11.4167 91.25 9.70833 90.9167 8.125 90.25C6.54167 89.5417 5.14583 88.6042 3.9375 87.4375C2.77083 86.2292 1.83333 84.8333 1.125 83.25C0.458333 81.6667 0.125 79.9583 0.125 78.125C0.125 76.3333 0.458333 74.625 1.125 73C1.83333 71.375 2.77083 69.9792 3.9375 68.8125C5.14583 67.6042 6.54167 66.6458 8.125 65.9375C9.70833 65.2292 11.4167 64.875 13.25 64.875C15.0417 64.875 16.7292 65.2292 18.3125 65.9375C19.8958 66.6458 21.2708 67.6042 22.4375 68.8125C23.6458 69.9792 24.6042 71.375 25.3125 73C26.0208 74.625 26.375 76.3333 26.375 78.125ZM139.812 48.625C139.812 54.5833 139.625 60.5208 139.25 66.4375C138.875 72.3542 138.438 78.2917 137.938 84.25L105.812 85.75C106.771 78.5 107.625 71.25 108.375 64C109.167 56.7083 109.562 49.4167 109.562 42.125C109.562 41.6667 109.542 40.875 109.5 39.75C109.458 38.5833 109.375 37.2708 109.25 35.8125C109.167 34.3542 109.021 32.8542 108.812 31.3125C108.646 29.7292 108.396 28.2917 108.062 27C107.771 25.6667 107.396 24.5833 106.938 23.75C106.479 22.9167 105.938 22.5 105.312 22.5C103.854 22.5 102.708 23.0625 101.875 24.1875C101.042 25.2708 100.417 26.5833 100 28.125C99.625 29.6667 99.3958 31.25 99.3125 32.875C99.2292 34.4583 99.1875 35.75 99.1875 36.75C99.1875 38.5 99.2292 40.25 99.3125 42C99.3958 43.75 99.4375 45.5417 99.4375 47.375C99.4375 53.8333 99.2708 60.2708 98.9375 66.6875C98.6458 73.1042 98.2708 79.5417 97.8125 86L68.1875 87.125C69.1458 79.875 69.9792 72.6458 70.6875 65.4375C71.4375 58.1875 71.8125 50.9167 71.8125 43.625C71.8125 43.1667 71.7917 42.3333 71.75 41.125C71.7083 39.9167 71.625 38.5625 71.5 37.0625C71.4167 35.5625 71.2708 34 71.0625 32.375C70.8542 30.75 70.5833 29.2708 70.25 27.9375C69.9583 26.5625 69.5833 25.4375 69.125 24.5625C68.6667 23.6875 68.1042 23.25 67.4375 23.25C66.3958 23.25 65.5208 23.6667 64.8125 24.5C64.1042 25.2917 63.5208 26.3333 63.0625 27.625C62.6458 28.9167 62.3125 30.3542 62.0625 31.9375C61.8542 33.4792 61.6875 35 61.5625 36.5C61.4792 38 61.4167 39.3958 61.375 40.6875C61.375 41.9375 61.3542 42.875 61.3125 43.5L59.9375 89.125H28.4375C29.1042 82.0833 29.7708 75.0208 30.4375 67.9375C31.1458 60.8542 31.75 53.7917 32.25 46.75C32.7917 39.6667 33.2292 32.5833 33.5625 25.5C33.8958 18.4167 34.0625 11.3333 34.0625 4.25L63.8125 3L63.6875 10.25C64.6042 9.08333 65.6458 7.91667 66.8125 6.75C67.9792 5.54167 69.2083 4.47917 70.5 3.5625C71.8333 2.60417 73.2292 1.83333 74.6875 1.25C76.1875 0.666667 77.7292 0.375 79.3125 0.375C81.3542 0.375 83.1875 0.541667 84.8125 0.875C86.4375 1.16667 87.8958 1.6875 89.1875 2.4375C90.5208 3.1875 91.6875 4.22917 92.6875 5.5625C93.6875 6.85417 94.5625 8.5 95.3125 10.5C96.6458 9.04167 97.9792 7.6875 99.3125 6.4375C100.688 5.1875 102.125 4.125 103.625 3.25C105.125 2.33333 106.75 1.625 108.5 1.125C110.25 0.625 112.188 0.375 114.312 0.375C118.354 0.375 121.792 1.16667 124.625 2.75C127.458 4.29167 129.812 6.35417 131.688 8.9375C133.604 11.5208 135.083 14.4792 136.125 17.8125C137.208 21.1458 138.021 24.6042 138.562 28.1875C139.104 31.7708 139.438 35.3333 139.562 38.875C139.729 42.4167 139.812 45.6667 139.812 48.625ZM224.375 85.625L193.375 89.625L189.625 75.5H175.375L172.25 89.625L140.375 86.5L165.25 3.25L200 1.5L224.375 85.625ZM187.375 56.375L182.625 34.625L178 56.375H187.375Z" fill="black"/>
<path d="M22.4375 87.4375L25.973 90.973L22.4375 87.4375ZM18.3125 90.25L20.2528 94.8582L20.3038 94.8367L20.3543 94.8141L18.3125 90.25ZM8.125 90.25L6.08317 94.8141L6.1337 94.8367L6.18471 94.8582L8.125 90.25ZM3.9375 87.4375L0.340493 90.9105L0.401422 90.9736L0.464527 91.0345L3.9375 87.4375ZM1.125 83.25L-3.48318 85.1903L-3.4617 85.2413L-3.43909 85.2918L1.125 83.25ZM1.125 73L-3.45848 71.0021L-3.48021 71.0519L-3.50084 71.1022L1.125 73ZM3.9375 68.8125L0.401966 65.277L3.9375 68.8125ZM22.4375 68.8125L18.8405 72.2855L18.9014 72.3486L18.9645 72.4095L22.4375 68.8125ZM21.375 78.125C21.375 79.2955 21.1531 80.3035 20.7484 81.2082L29.8766 85.2918C30.8885 83.0299 31.375 80.6212 31.375 78.125H21.375ZM20.7484 81.2082C20.2852 82.2436 19.6727 83.1312 18.902 83.902L25.973 90.973C27.619 89.3271 28.9232 87.423 29.8766 85.2918L20.7484 81.2082ZM18.902 83.902C18.1882 84.6158 17.3265 85.2136 16.2707 85.6859L20.3543 94.8141C22.4652 93.8698 24.3535 92.5926 25.973 90.973L18.902 83.902ZM16.3722 85.6418C15.4294 86.0388 14.4044 86.25 13.25 86.25V96.25C15.6789 96.25 18.029 95.7945 20.2528 94.8582L16.3722 85.6418ZM13.25 86.25C12.0377 86.25 10.994 86.0329 10.0653 85.6418L6.18471 94.8582C8.42269 95.8005 10.7956 96.25 13.25 96.25V86.25ZM10.1668 85.6859C9.09547 85.2066 8.18785 84.5911 7.41047 83.8405L0.464527 91.0345C2.10382 92.6173 3.98787 93.8767 6.08317 94.8141L10.1668 85.6859ZM7.53451 83.9645C6.78394 83.1872 6.16839 82.2795 5.68909 81.2082L-3.43909 85.2918C-2.50172 87.3871 -1.24227 89.2712 0.340493 90.9105L7.53451 83.9645ZM5.73318 81.3097C5.34215 80.381 5.125 79.3373 5.125 78.125H-4.875C-4.875 80.5794 -4.42548 82.9523 -3.48318 85.1903L5.73318 81.3097ZM5.125 78.125C5.125 76.9709 5.33626 75.9083 5.75084 74.8978L-3.50084 71.1022C-4.41959 73.3417 -4.875 75.6958 -4.875 78.125H5.125ZM5.70848 74.9979C6.18553 73.9035 6.78082 73.0402 7.47303 72.348L0.401966 65.277C-1.23915 66.9181 -2.51886 68.8465 -3.45848 71.0021L5.70848 74.9979ZM7.47303 72.348C8.24375 71.5773 9.13138 70.9648 10.1668 70.5016L6.08317 61.3734C3.95195 62.3268 2.04792 63.631 0.401966 65.277L7.47303 72.348ZM10.1668 70.5016C11.0715 70.0969 12.0795 69.875 13.25 69.875V59.875C10.7538 59.875 8.34512 60.3615 6.08317 61.3734L10.1668 70.5016ZM13.25 69.875C14.3617 69.875 15.351 70.0902 16.2707 70.5016L20.3543 61.3734C18.1073 60.3682 15.7216 59.875 13.25 59.875V69.875ZM16.2707 70.5016C17.2901 70.9576 18.1323 71.552 18.8405 72.2855L26.0345 65.3395C24.4094 63.6564 22.5016 62.334 20.3543 61.3734L16.2707 70.5016ZM18.9645 72.4095C19.6757 73.0961 20.2678 73.9398 20.729 74.9979L29.896 71.0021C28.9406 68.8102 27.616 66.8622 25.9105 65.2155L18.9645 72.4095ZM20.729 74.9979C21.1596 75.9858 21.375 77.0133 21.375 78.125H31.375C31.375 75.6534 30.8821 73.2642 29.896 71.0021L20.729 74.9979ZM137.938 84.25L138.171 89.2446L142.553 89.0399L142.92 84.6681L137.938 84.25ZM105.812 85.75L100.856 85.0948L100.072 91.0235L106.046 90.7446L105.812 85.75ZM108.375 64L103.404 63.4603L103.403 63.4729L103.402 63.4855L108.375 64ZM109.5 39.75L104.503 39.9285L104.503 39.9351L109.5 39.75ZM109.25 35.8125L104.258 36.0977L104.262 36.1687L104.268 36.2395L109.25 35.8125ZM108.812 31.3125L103.84 31.8359L103.848 31.9091L103.858 31.9821L108.812 31.3125ZM108.062 27L103.178 28.0685L103.198 28.1593L103.221 28.2494L108.062 27ZM101.875 24.1875L105.838 27.2361L105.866 27.2001L105.893 27.1636L101.875 24.1875ZM100 28.125L95.1732 26.8205L95.1566 26.8816L95.1417 26.9432L100 28.125ZM99.3125 32.875L104.306 33.1378L104.306 33.1311L99.3125 32.875ZM98.9375 66.6875L93.9442 66.4281L93.9434 66.4443L93.9427 66.4605L98.9375 66.6875ZM97.8125 86L98.0022 90.9964L102.483 90.8263L102.8 86.3539L97.8125 86ZM68.1875 87.125L63.2306 86.4698L62.4538 92.3463L68.3772 92.1214L68.1875 87.125ZM70.6875 65.4375L65.714 64.923L65.7127 64.9358L65.7115 64.9485L70.6875 65.4375ZM71.5 37.0625L66.5077 37.3399L66.5115 37.4089L66.5173 37.4777L71.5 37.0625ZM70.25 27.9375L65.3588 28.975L65.3775 29.063L65.3993 29.1502L70.25 27.9375ZM64.8125 24.5L68.5387 27.834L68.5811 27.7866L68.6222 27.7382L64.8125 24.5ZM63.0625 27.625L58.3504 25.953L58.3262 26.0211L58.304 26.09L63.0625 27.625ZM62.0625 31.9375L57.1237 31.1577L57.115 31.2127L57.1075 31.2679L62.0625 31.9375ZM61.5625 36.5L56.5798 36.0848L56.574 36.1536L56.5702 36.2226L61.5625 36.5ZM61.375 40.6875L56.3776 40.5263L56.375 40.6069V40.6875H61.375ZM61.3125 43.5L56.3236 43.1674L56.3175 43.2583L56.3148 43.3494L61.3125 43.5ZM59.9375 89.125V94.125H64.7891L64.9352 89.2756L59.9375 89.125ZM28.4375 89.125L23.4598 88.6537L22.9418 94.125H28.4375V89.125ZM30.4375 67.9375L25.4623 67.44L25.4609 67.4545L25.4595 67.469L30.4375 67.9375ZM32.25 46.75L27.2646 46.3688L27.2635 46.3823L27.2626 46.3959L32.25 46.75ZM33.5625 25.5L28.568 25.265L33.5625 25.5ZM34.0625 4.25L33.8526 -0.745592L29.0625 -0.544328V4.25H34.0625ZM63.8125 3L68.8118 3.08619L68.9032 -2.21831L63.6026 -1.99559L63.8125 3ZM63.6875 10.25L58.6882 10.1638L58.4319 25.0319L67.6191 13.3391L63.6875 10.25ZM66.8125 6.75L70.348 10.2855L70.379 10.2545L70.4095 10.223L66.8125 6.75ZM70.5 3.5625L73.3937 7.64004L73.406 7.63134L73.4182 7.62258L70.5 3.5625ZM74.6875 1.25L72.8753 -3.41002L72.8529 -3.40131L72.8305 -3.39238L74.6875 1.25ZM84.8125 0.875L83.8078 5.77301L83.8683 5.78544L83.9292 5.79636L84.8125 0.875ZM89.1875 2.4375L86.6768 6.76144L86.7064 6.77861L86.7362 6.79538L89.1875 2.4375ZM92.6875 5.5625L88.6875 8.5625L88.7105 8.59311L88.7339 8.62337L92.6875 5.5625ZM95.3125 10.5L90.6309 12.2556L93.4962 19.8965L99.0026 13.8738L95.3125 10.5ZM99.3125 6.4375L95.9491 2.7378L95.9208 2.76359L95.8928 2.78981L99.3125 6.4375ZM103.625 3.25L106.144 7.56889L106.189 7.5431L106.232 7.51641L103.625 3.25ZM124.625 2.75L122.186 7.11472L122.211 7.12847L122.235 7.14194L124.625 2.75ZM131.688 8.9375L127.641 11.8745L127.656 11.8957L127.672 11.9167L131.688 8.9375ZM136.125 17.8125L131.353 19.3039L131.361 19.331L131.37 19.3579L136.125 17.8125ZM139.562 38.875L134.566 39.0514L134.567 39.0807L134.568 39.11L139.562 38.875ZM134.812 48.625C134.812 54.4784 134.628 60.3104 134.26 66.1212L144.24 66.7538C144.622 60.7313 144.812 54.6883 144.812 48.625H134.812ZM134.26 66.1212C133.887 72.0036 133.452 77.9072 132.955 83.8319L142.92 84.6681C143.423 78.6761 143.863 72.7047 144.24 66.7538L134.26 66.1212ZM137.704 79.2554L105.579 80.7554L106.046 90.7446L138.171 89.2446L137.704 79.2554ZM110.769 86.4052C111.734 79.1085 112.594 71.8116 113.348 64.5145L103.402 63.4855C102.656 70.6884 101.808 77.8915 100.856 85.0948L110.769 86.4052ZM113.346 64.5397C114.157 57.0698 114.562 49.598 114.562 42.125H104.562C104.562 49.2353 104.177 56.3468 103.404 63.4603L113.346 64.5397ZM114.562 42.125C114.562 41.5639 114.538 40.6887 114.497 39.5649L104.503 39.9351C104.545 41.0613 104.562 41.7694 104.562 42.125H114.562ZM114.497 39.5715C114.452 38.3043 114.362 36.9069 114.232 35.3855L104.268 36.2395C104.388 37.6348 104.465 38.8624 104.503 39.9285L114.497 39.5715ZM114.242 35.5273C114.151 33.9324 113.992 32.304 113.767 30.6429L103.858 31.9821C104.05 33.4043 104.183 34.7759 104.258 36.0977L114.242 35.5273ZM113.785 30.7891C113.597 29.0061 113.309 27.3211 112.904 25.7506L103.221 28.2494C103.482 29.2623 103.694 30.4522 103.84 31.8359L113.785 30.7891ZM112.947 25.9315C112.593 24.3146 112.085 22.7333 111.319 21.3404L102.556 26.1596C102.707 26.4334 102.948 27.0187 103.178 28.0685L112.947 25.9315ZM111.319 21.3404C110.481 19.8182 108.604 17.5 105.312 17.5V27.5C104.418 27.5 103.656 27.173 103.139 26.7756C102.908 26.5978 102.758 26.4316 102.674 26.3266C102.631 26.2729 102.601 26.2304 102.583 26.2029C102.565 26.1754 102.557 26.16 102.556 26.1596L111.319 21.3404ZM105.312 17.5C102.347 17.5 99.6787 18.7523 97.8572 21.2114L105.893 27.1636C105.893 27.1632 105.886 27.1726 105.871 27.189C105.856 27.2056 105.833 27.2281 105.803 27.254C105.739 27.3082 105.657 27.3638 105.563 27.4102C105.358 27.5106 105.238 27.5 105.312 27.5V17.5ZM97.9119 21.1389C96.6178 22.8212 95.7324 24.7515 95.1732 26.8205L104.827 29.4295C105.101 28.4151 105.466 27.7204 105.838 27.2361L97.9119 21.1389ZM95.1417 26.9432C94.6909 28.7962 94.418 30.6898 94.3191 32.6189L104.306 33.1311C104.374 31.8102 104.559 30.5371 104.858 29.3068L95.1417 26.9432ZM94.3194 32.6122C94.2338 34.2389 94.1875 35.6271 94.1875 36.75H104.188C104.188 35.8729 104.225 34.6778 104.306 33.1378L94.3194 32.6122ZM94.1875 36.75C94.1875 38.5794 94.2311 40.4087 94.3182 42.2378L104.307 41.7622C104.227 40.0913 104.188 38.4206 104.188 36.75H94.1875ZM94.3182 42.2378C94.3976 43.9051 94.4375 45.6173 94.4375 47.375H104.438C104.438 45.466 104.394 43.5949 104.307 41.7622L94.3182 42.2378ZM94.4375 47.375C94.4375 53.7473 94.2731 60.0983 93.9442 66.4281L103.931 66.9469C104.269 60.4434 104.438 53.9194 104.438 47.375H94.4375ZM93.9427 66.4605C93.6529 72.8345 93.2804 79.2297 92.825 85.6461L102.8 86.3539C103.261 79.8537 103.639 73.3739 103.932 66.9145L93.9427 66.4605ZM97.6228 81.0036L67.9978 82.1286L68.3772 92.1214L98.0022 90.9964L97.6228 81.0036ZM73.1444 87.7802C74.11 80.4754 74.9497 73.1909 75.6635 65.9265L65.7115 64.9485C65.0086 72.1008 64.1817 79.2746 63.2306 86.4698L73.1444 87.7802ZM75.661 65.952C76.4286 58.531 76.8125 51.0884 76.8125 43.625H66.8125C66.8125 50.7449 66.4464 57.844 65.714 64.923L75.661 65.952ZM76.8125 43.625C76.8125 43.0691 76.7885 42.1551 76.747 40.9527L66.753 41.2973C66.7948 42.5116 66.8125 43.2642 66.8125 43.625H76.8125ZM76.747 40.9527C76.702 39.6465 76.6129 38.2095 76.4827 36.6473L66.5173 37.4777C66.6371 38.9155 66.7147 40.1868 66.753 41.2973L76.747 40.9527ZM76.4923 36.7851C76.4017 35.1551 76.2442 33.4727 76.0219 31.7392L66.1031 33.0108C66.2975 34.5273 66.4316 35.9699 66.5077 37.3399L76.4923 36.7851ZM76.0219 31.7392C75.7932 29.9555 75.4895 28.2801 75.1007 26.7248L65.3993 29.1502C65.6771 30.2616 65.9151 31.5445 66.1031 33.0108L76.0219 31.7392ZM75.1412 26.9C74.7912 25.2503 74.2928 23.6525 73.5542 22.2425L64.6958 26.8825C64.8739 27.2225 65.1254 27.8747 65.3588 28.975L75.1412 26.9ZM73.5542 22.2425C72.6953 20.6028 70.785 18.25 67.4375 18.25V28.25C66.5797 28.25 65.8214 27.9385 65.2897 27.5249C65.0536 27.3413 64.901 27.1686 64.815 27.058C64.7712 27.0017 64.7411 26.957 64.7228 26.9281C64.7045 26.8992 64.6961 26.883 64.6958 26.8825L73.5542 22.2425ZM67.4375 18.25C64.8472 18.25 62.6069 19.3746 61.0028 21.2618L68.6222 27.7382C68.5781 27.7901 68.4265 27.945 68.1497 28.0768C67.8663 28.2118 67.6037 28.25 67.4375 28.25V18.25ZM61.0863 21.166C59.8385 22.5606 58.9659 24.2183 58.3504 25.953L67.7746 29.297C68.0758 28.4483 68.3698 28.0227 68.5387 27.834L61.0863 21.166ZM58.304 26.09C57.795 27.6678 57.4071 29.3628 57.1237 31.1577L67.0013 32.7173C67.2179 31.3455 67.4967 30.1656 67.821 29.16L58.304 26.09ZM57.1075 31.2679C56.8882 32.8913 56.7121 34.497 56.5798 36.0848L66.5452 36.9152C66.6629 35.503 66.8202 34.067 67.0175 32.6071L57.1075 31.2679ZM56.5702 36.2226C56.4851 37.7553 56.4207 39.1903 56.3776 40.5263L66.3724 40.8487C66.4126 39.6014 66.4733 38.2447 66.5548 36.7774L56.5702 36.2226ZM56.375 40.6875C56.375 41.9126 56.3538 42.7145 56.3236 43.1674L66.3014 43.8326C66.3546 43.0355 66.375 41.9624 66.375 40.6875H56.375ZM56.3148 43.3494L54.9398 88.9744L64.9352 89.2756L66.3102 43.6506L56.3148 43.3494ZM59.9375 84.125H28.4375V94.125H59.9375V84.125ZM33.4152 89.5963C34.082 82.5537 34.7487 75.4903 35.4155 68.406L25.4595 67.469C24.7929 74.5514 24.1263 81.613 23.4598 88.6537L33.4152 89.5963ZM35.4127 68.435C36.1258 61.3044 36.734 54.1941 37.2374 47.1041L27.2626 46.3959C26.766 53.3893 26.1659 60.404 25.4623 67.44L35.4127 68.435ZM37.2354 47.1312C37.7808 39.9993 38.2213 32.8672 38.557 25.735L28.568 25.265C28.237 32.2994 27.8025 39.334 27.2646 46.3688L37.2354 47.1312ZM38.557 25.735C38.894 18.5735 39.0625 11.4118 39.0625 4.25H29.0625C29.0625 11.2549 28.8977 18.2598 28.568 25.265L38.557 25.735ZM34.2724 9.24559L64.0224 7.99559L63.6026 -1.99559L33.8526 -0.745592L34.2724 9.24559ZM58.8132 2.91381L58.6882 10.1638L68.6868 10.3362L68.8118 3.08619L58.8132 2.91381ZM67.6191 13.3391C68.4 12.3452 69.3068 11.3268 70.348 10.2855L63.277 3.21447C61.9849 4.50655 60.8083 5.82145 59.7559 7.16089L67.6191 13.3391ZM70.4095 10.223C71.3739 9.22416 72.3694 8.36697 73.3937 7.64004L67.6063 -0.515036C66.0472 0.591364 64.5845 1.85918 63.2155 3.27703L70.4095 10.223ZM73.4182 7.62258C74.4376 6.88988 75.4788 6.31863 76.5445 5.89238L72.8305 -3.39238C70.9795 -2.65196 69.2291 -1.68154 67.5818 -0.497577L73.4182 7.62258ZM76.4997 5.91002C77.4317 5.5476 78.3595 5.375 79.3125 5.375V-4.625C77.0989 -4.625 74.9433 -4.21426 72.8753 -3.41002L76.4997 5.91002ZM79.3125 5.375C81.0907 5.375 82.5787 5.5209 83.8078 5.77301L85.8172 -4.02301C83.7963 -4.43757 81.6177 -4.625 79.3125 -4.625V5.375ZM83.9292 5.79636C85.0412 5.99595 85.939 6.333 86.6768 6.76144L91.6982 -1.88644C89.8527 -2.958 87.8338 -3.66262 85.6958 -4.04636L83.9292 5.79636ZM86.7362 6.79538C87.4123 7.17568 88.0663 7.7342 88.6875 8.5625L96.6875 2.5625C95.3087 0.724137 93.6294 -0.800679 91.6388 -1.92038L86.7362 6.79538ZM88.7339 8.62337C89.3496 9.41864 90.0059 10.5891 90.6309 12.2556L99.9941 8.74438C99.1191 6.41093 98.0254 4.28969 96.6411 2.50163L88.7339 8.62337ZM99.0026 13.8738C100.256 12.5027 101.5 11.2407 102.732 10.0852L95.8928 2.78981C94.4587 4.13431 93.0354 5.58064 91.6224 7.12615L99.0026 13.8738ZM102.676 10.1372C103.81 9.10622 104.967 8.25576 106.144 7.56889L101.106 -1.06889C99.2831 -0.00576335 97.5651 1.26878 95.9491 2.7378L102.676 10.1372ZM106.232 7.51641C107.334 6.84318 108.542 6.31309 109.874 5.93262L107.126 -3.68262C104.958 -3.06309 102.916 -2.17651 101.018 -1.01641L106.232 7.51641ZM109.874 5.93262C111.11 5.5795 112.576 5.375 114.312 5.375V-4.625C111.799 -4.625 109.39 -4.3295 107.126 -3.68262L109.874 5.93262ZM114.312 5.375C117.707 5.375 120.26 6.0383 122.186 7.11472L127.064 -1.61472C123.324 -3.70497 119.002 -4.625 114.312 -4.625V5.375ZM122.235 7.14194C124.422 8.33182 126.208 9.8999 127.641 11.8745L135.734 6.00052C133.417 2.80844 130.495 0.251513 127.015 -1.64194L122.235 7.14194ZM127.672 11.9167C129.227 14.013 130.464 16.4596 131.353 19.3039L140.897 16.3211C139.703 12.4987 137.981 9.02862 135.703 5.95827L127.672 11.9167ZM131.37 19.3579C132.366 22.4222 133.117 25.6131 133.619 28.9348L143.506 27.4402C142.925 23.5953 142.051 19.8695 140.88 16.2671L131.37 19.3579ZM133.619 28.9348C134.132 32.3333 134.448 35.7051 134.566 39.0514L144.559 38.6986C144.427 34.9615 144.076 31.2084 143.506 27.4402L133.619 28.9348ZM134.568 39.11C134.732 42.5882 134.812 45.7586 134.812 48.625H144.812C144.812 45.5748 144.727 42.2451 144.557 38.64L134.568 39.11ZM224.375 85.625L225.015 90.5839L230.801 89.8373L229.177 84.2335L224.375 85.625ZM193.375 89.625L188.542 90.908L189.667 95.1449L194.015 94.5839L193.375 89.625ZM189.625 75.5L194.458 74.217L193.471 70.5H189.625V75.5ZM175.375 75.5V70.5H171.36L170.493 74.4199L175.375 75.5ZM172.25 89.625L171.762 94.6011L176.174 95.0337L177.132 90.7051L172.25 89.625ZM140.375 86.5L135.584 85.0685L133.847 90.8839L139.887 91.4761L140.375 86.5ZM165.25 3.25L164.999 -1.74367L161.471 -1.56601L160.459 1.81854L165.25 3.25ZM200 1.5L204.802 0.108497L203.701 -3.69272L199.749 -3.49367L200 1.5ZM187.375 56.375V61.375H193.585L192.26 55.3082L187.375 56.375ZM182.625 34.625L187.51 33.5582L177.734 33.585L182.625 34.625ZM178 56.375L173.109 55.335L171.825 61.375H178V56.375ZM223.735 80.6661L192.735 84.6661L194.015 94.5839L225.015 90.5839L223.735 80.6661ZM198.208 88.342L194.458 74.217L184.792 76.783L188.542 90.908L198.208 88.342ZM189.625 70.5H175.375V80.5H189.625V70.5ZM170.493 74.4199L167.368 88.5449L177.132 90.7051L180.257 76.5801L170.493 74.4199ZM172.738 84.6489L140.863 81.5239L139.887 91.4761L171.762 94.6011L172.738 84.6489ZM145.166 87.9315L170.041 4.68146L160.459 1.81854L135.584 85.0685L145.166 87.9315ZM165.501 8.24367L200.251 6.49367L199.749 -3.49367L164.999 -1.74367L165.501 8.24367ZM195.198 2.8915L219.573 87.0165L229.177 84.2335L204.802 0.108497L195.198 2.8915ZM192.26 55.3082L187.51 33.5582L177.74 35.6918L182.49 57.4418L192.26 55.3082ZM177.734 33.585L173.109 55.335L182.891 57.415L187.516 35.665L177.734 33.585ZM178 61.375H187.375V51.375H178V61.375Z" fill="#909694" mask="url(#path-1-outside-1_113_2)"/>
</svg>
